# xmcd CD database file
#
# Track frame offsets:
#	150
#	17437
#	43909
#	69766
#	94942
#	114597
#	135766
#	174274
#	191806
#	204956
#	224495
#	237074
#	255248
#
# Disc length: 3651 seconds
#
# Revision: 0
# Processed by: cddbd v1.5.2PL0 Copyright (c) Steve Scherf et al.
# Submitted via: ACXtractor (MTCDDB.DLL V2003.12.21)
#
DISCID=a40e410d
DTITLE=BlossBluez - free Lunch
DYEAR=2007
DGENRE=Blues
TTITLE0=Messin With The Kid
TTITLE1=You Don't Love Me
TTITLE2=No Free Lunch
TTITLE3=These Blues
TTITLE4=Kansas City
TTITLE5=St. Luis Blues
TTITLE6=In the Wee Hours
TTITLE7=Bluez'n n Trouble
TTITLE8=Caldonia
TTITLE9=Help Me
TTITLE10=One More Mile
TTITLE11=How Long Can A Fool Go Wrong
TTITLE12=In Hurts Me Too
EXTD=Acid Blues ID3G:   0 YEAR: 2007
EXTT0=
EXTT1=
EXTT2=
EXTT3=
EXTT4=
EXTT5=
EXTT6=
EXTT7=
EXTT8=
EXTT9=
EXTT10=
EXTT11=
EXTT12=
PLAYORDER=
